<?xml version="1.0" encoding="UTF-8"?>
<svg viewBox="0 0 744.09447 1052.362179" xmlns="http://www.w3.org/2000/svg" xmlns:xlink="http://www.w3.org/1999/xlink">
 <g transform="translate(261.96 292.41)">
  <path d="m84.906 274.21h97.968v209.93h-97.968z" fill="#fefefe"/>
  <g transform="matrix(1.0928 0 0 1 -164.14 -154.28)">
   <path d="m263.4 627.73c-8.1512-0.8081-15.215-6.348-19.825-8.8303l-2.2234-4.7833-1.2122-3.3976c0.2674-7.5908-2.4476-10.146-0.29579-12.78 2.3746-2.9062 0.03523-1.984 1.4402-0.06267s1.4739 1.8977 2.6892-0.7696c0.68664-1.507 1.5414-2.74 1.8994-2.74 1.0484 0 5.028 3.9883 5.028 5.039 0 0.52857 1.6353 0.96104 3.634 0.96104 7.9627 0 14.939 4.0195 8.2877 4.7751-4.624 0.52534-12.806 3.381-14.078 4.9133-1.0708 1.2902-0.87957 1.864 1.176 3.5285 2.0981 1.6989 3.3274 1.889 8.4615 1.3081 6.6226-0.74926 7.0174-0.90944 6.06-2.4586-0.36254-0.58659-2.7476-1.0665-5.3001-1.0665-6.8564 0-3.9297-2.1433 3.9564-2.8973 5.5575-0.53142 6.3404-0.86868 6.6222-2.8527 0.37539-2.6432 3.329-2.9517 7.1804-0.75 1.375 0.78602 4.3 1.4476 6.5 1.4701 5.1572 0.05288 11.523 1.805 13.75 3.7842 1.5859 1.4097 1.9215 1.4004 3.5787-0.09939 2.8039-2.5375 4.5037-2.1157 3.7398 0.9281-0.79533 3.1689-5.3242 10.491-7.4824 12.097-4.2374 3.154-22.842 5.748-33.586 4.6828zm-24.4-55.113c0.05482-2.0625 0.42109-4.875 0.81392-6.25 0.64852-2.27 0.77477-2.132 1.3721 1.5 0.71028 4.3186 0.02041 8.5-1.4024 8.5-0.48585 0-0.83851-1.6875-0.78369-3.75zm61.968-13.123c-1.3259-2.4774-1.3823-5.814-0.11163-6.5994 1.285-0.79419 4.2948 3.9346 3.8767 6.0908-0.4892 2.523-2.5388 2.7998-3.7651 0.50855zm-61.596-2.3843c-0.7916-3.154 0.2004-9.7422 1.4669-9.7422 2.3053 0 2.7712 7.6475 0.64317 10.558-1.3644 1.8659-1.4449 1.8348-2.11-0.81544zm0.15356-20.867c-0.97523-4.8762-0.73481-23.552 0.42196-32.777 1.1545-9.2073 3.1667-13.891 11.426-26.598 8.0878-12.442 7.9208-11.943 8.1363-24.353 0.10841-6.2443 0.6567-11.813 1.2184-12.375 1.4327-1.4327 23.525 0.03413 25.823 1.7145 1.431 1.0464 1.5371 1.5821 0.54914 2.7725-0.97888 1.1795-0.92115 1.7274 0.28775 2.7307 1.6916 1.4039 2.0617 7.5526 0.51233 8.5102-2.5779 1.5932-0.79352 6.1568 8.261 21.128 12.181 20.141 14.265 28.386 9.3122 36.837-2.3297 3.9754-2.6318 5.4773-2.4222 12.043 0.16423 5.1443-0.17127 7.8924-1.0678 8.7464-1.0745 1.0235-1.214-1.2274-0.78374-12.641 0.34028-9.0259 0.9341-14.14 1.6966-14.611 0.78339-0.48416 0.53027-0.89308-0.76202-1.231-1.3964-0.36517-2.0924-1.6794-2.5004-4.7213-0.58137-4.3344-1.2972-5.8198-2.3146-4.8024-0.31956 0.31956-0.05287 1.5679 0.59264 2.774 0.78673 1.47 0.84216 2.5245 0.16815 3.1985-1.5365 1.5365-3.179-0.02523-3.1859-3.0292-0.00339-1.48-0.72293-4.041-1.599-5.691-2.5591-4.8199-9.3949-22.728-9.3949-24.612 0-3.038-1.1627-4.8883-3.0718-4.8883-1.0218 0-2.3606-0.9395-2.9752-2.0878-0.85823-1.6036-1.7078-1.9396-3.6633-1.4488-4.1286 1.0362-7.7576 5.5343-12.759 15.815-2.8238 5.8047-6.0652 10.862-8.1163 12.663-3.4094 2.9935-4.367 5.0594-2.3453 5.0594 0.58825 0 0.92554 1.0125 0.74952 2.25-0.1948 1.3695-0.97035 2.2014-1.9818 2.1257-1.1343-0.08483-1.862 0.94295-2.2926 3.2378-0.3469 1.8492-1.4526 3.802-2.4571 4.3396-1.627 0.87073-1.8455 2.5681-2.0017 15.547-0.09644 8.0132-0.42835 15.229-0.73758 16.035-0.91356 2.3807-2.0542 1.6855-2.7233-1.6598zm55.412-50.13c-3.4143-8.2015-5.5181-11.597-6.547-10.568-1.0568 1.0568 0.32451 4.3159 3.5491 8.3735 1.6282 2.0489 2.9605 4.6984 2.9605 5.8878 0 2.0557 1.9322 4.9637 2.7528 4.1431 0.21235-0.21235-1.0095-3.7385-2.7153-7.8359z" fill="#e1e1dd"/>
   <path d="m273.74 627.87c-0.19615-0.19616-4.8526-0.61428-10.348-0.92918-11.308-0.64797-15.655-5.4936-20.614-9.6872-1.4552-10.087-0.3819 5.4276-3.4497-6.3014-0.24029-5.8383-1.5597-8.2187 0.26467-10.317 1.6409-1.8872-0.03915-1.974 0.95852-1.146 1.0132 0.8409 1.725 0.37704 3.0834-2.0095 0.97136-1.7065 2.0188-3.1056 2.3275-3.1091 0.97479-0.01098 4.9386 4.0283 4.9386 5.0326 0 0.52857 1.6353 0.96104 3.634 0.96104 7.9627 0 14.939 4.0195 8.2877 4.7751-4.624 0.52534-12.806 3.381-14.078 4.9133-1.0708 1.2902-0.87957 1.864 1.176 3.5285 2.0981 1.6989 3.3274 1.889 8.4615 1.3081 6.6226-0.74926 7.0174-0.90944 6.06-2.4586-0.36254-0.58659-2.7476-1.0665-5.3001-1.0665-6.8564 0-3.9297-2.1433 3.9564-2.8973 5.5575-0.53142 6.3404-0.86868 6.6222-2.8527 0.37539-2.6432 3.329-2.9517 7.1804-0.75 1.375 0.78602 4.3 1.4476 6.5 1.4701 5.1572 0.05288 11.523 1.805 13.75 3.7842 1.5859 1.4097 1.9215 1.4004 3.5787-0.09939 2.1142-1.9133 4.1713-2.1671 4.1713-0.51452 0 0.62726-0.98755 3.1178-2.1946 5.5346-3.123 6.2531-8.8243 9.7252-18.499 11.266-4.2937 0.68367-8.3253 1.3957-8.959 1.5823s-1.3127 0.17873-1.5089-0.01742zm-31.177-21.756c-0.27741-0.6875-0.50439-0.125-0.50439 1.25s0.22698 1.9375 0.50439 1.25 0.27741-1.8125 0-2.5zm-3.5626-33.5c0.05482-2.0625 0.42109-4.875 0.81392-6.25 0.64852-2.27 0.77477-2.132 1.3721 1.5 0.71028 4.3186 0.02041 8.5-1.4024 8.5-0.48585 0-0.83851-1.6875-0.78369-3.75zm61.936-13.184c-1.1713-2.1886-1.3612-5.4063-0.37719-6.3904 1.3247-1.3247 3.342 1.6614 3.342 4.9471 0 3.7455-1.3746 4.4146-2.9648 1.4433zm-61.564-2.3235c-0.7916-3.154 0.2004-9.7422 1.4669-9.7422 2.3053 0 2.7712 7.6475 0.64317 10.558-1.3644 1.8659-1.4449 1.8348-2.11-0.81544zm0.15356-20.867c-0.34375-1.7188-0.625-8.6779-0.625-15.465 0-10.942 0.20761-12.451 1.8333-13.321 1.4314-0.76605 1.8675-0.60932 1.9891 0.71481 0.39384 4.287-0.00599 28.511-0.49146 29.776-0.89735 2.3384-2.0415 1.6176-2.706-1.7048zm61.672-14.201c0.28661-7.6042 0.78702-14.092 1.112-14.417 1.0659-1.0659 1.696 0.454 1.6076 3.8775-0.39888 15.439-0.99598 22.236-2.0404 23.227-0.93187 0.88371-1.0837-1.953-0.67913-12.688zm3.703-15.504c0-0.45617-0.9923-0.79367-2.2051-0.75-1.841 0.06629-2.3316-0.64514-2.9714-4.3087-0.79951-4.5781-1.4251-5.8436-2.4045-4.8642-0.31956 0.31956-0.05287 1.5679 0.59264 2.774 0.78673 1.47 0.84216 2.5245 0.16815 3.1985-1.5365 1.5365-3.179-0.02523-3.1859-3.0292-0.00339-1.48-0.72293-4.041-1.599-5.691-2.5591-4.8199-9.3949-22.728-9.3949-24.612 0-3.038-1.1627-4.8883-3.0718-4.8883-1.0218 0-2.3606-0.9395-2.9752-2.0878-0.85823-1.6036-1.7078-1.9396-3.6633-1.4488-4.1286 1.0362-7.7576 5.5343-12.759 15.815-2.8238 5.8047-6.0652 10.862-8.1163 12.663-3.4094 2.9935-4.367 5.0594-2.3453 5.0594 0.58825 0 0.92554 1.0125 0.74952 2.25-0.1948 1.3695-0.97035 2.2014-1.9818 2.1257-1.1378-0.08509-1.863 0.9484-2.3 3.2778-0.35103 1.8711-1.0271 3.1618-1.5023 2.868s-1.092 0.03128-1.3705 0.72221c-0.30554 0.75786-0.53778 0.56198-0.58541-0.49377-0.04342-0.9625 0.47118-1.75 1.1436-1.75s0.22159-0.70107-1.0018-1.5579-2.6667-1.2845-3.2074-0.95029c-1.603 0.99072 0.03117-5.497 2.7687-10.992 1.3701-2.75 4.9638-8.7993 7.9861-13.443 7.2285-11.106 8.148-13.532 8.2211-21.688 0.03389-3.7778 0.16267-8.633 0.28617-10.789l0.22455-3.9207 6.5-0.01661c13.018-0.03326 17.656 0.38626 19.546 1.7678 1.8516 1.3539 1.8574 1.4875 0.14796 3.3764-1.4912 1.6477-1.5449 2.057-0.33102 2.5228 1.9919 0.76435 3.1204 6.4044 1.6386 8.1897-0.65052 0.78383-0.96307 2.9948-0.69967 4.9493 0.26183 1.943 0.07611 3.2854-0.41271 2.9833s-0.87447-0.18524-0.85698 0.25972c0.05314 1.3516 2.3662 3.8947 4.151 4.5638 1.7241 0.64632 8.4423 11.455 13.903 22.368 2.7266 5.449 3.4087 8.7445 3.0279 14.628-0.11023 1.7028-2.1133 2.5754-2.1133 0.9206zm-9.9625-20.426c-3.4143-8.2015-5.5181-11.597-6.547-10.568-1.0568 1.0568 0.32451 4.3159 3.5491 8.3735 1.6282 2.0489 2.9605 4.6984 2.9605 5.8878 0 2.0557 1.9322 4.9637 2.7528 4.1431 0.21235-0.21235-1.0095-3.7385-2.7153-7.8359z" fill="#dfe0e0"/>
   <path d="m258.9 626.38c-12.761-4.7614-13.043-5.5429-16.222-10.783-0.85076-1.4022-0.53052-1.6069-1.8653-3.0818-0.89438-0.98828-1.1536-2.7175-1.5022-4.46s0.38401-3.861 0.25589-1.3627c-0.15182 2.9603-0.12063-2.7038-0.12063-3.5853 0-2.2817 0.02871-5.2452 0.88899-3.8533 0.37584 0.60813 2.0212 1.1057 3.6565 1.1057s4.5814 0.67201 6.5472 1.4934 3.9979 1.2315 4.5158 0.91139 1.695-0.29289 2.6157 0.06043c1.4402 0.55265 1.4684 0.77143 0.20211 1.5658-0.80958 0.50785-2.2435 0.68338-3.1865 0.39006-2.192-0.68182-7.7854 3.4093-7.7854 5.6944 0 2.607 4.4312 5.5834 9.2383 6.2051 2.3439 0.30317 7.8617 0.0016 12.262-0.67015 7.3502-1.1222 7.9806-1.4012 7.7618-3.4359-0.30454-2.8312 2.583-2.9748 5.8774-0.29223l2.3608 1.9223-2.6432 1.0123c-1.4538 0.55679-4.2712 1.3178-6.261 1.691s-3.8959 1.1286-4.2357 1.6785c-0.73036 1.1817 10.146 0.17998 15.871-1.4618 3.9077-1.1206 5.8179-4.1158 3.8683-6.0654-1.667-1.667-1.3225-2.6993 0.90066-2.6993 1.1 0 2.9 0.9 4 2 2.4263 2.4263 2.8414 2.4535 5.1774 0.33946 2.7701-2.5069 3.3555-0.84752 1.305 3.6996-2.0385 4.5206-7.3352 9.6634-10.751 10.438-9.2879 2.1074-12.163 2.4612-19.232 2.367-4.4-0.05867-10.475-0.42961-13.5-0.8243zm22.188-12.703c-0.72188-0.28887-1.5844-0.25335-1.9167 0.07894s0.25834 0.56864 1.3125 0.52522c1.165-0.04798 1.4019-0.28494 0.60417-0.60416zm-38.532-8.5859c-0.27393-0.67703-0.48137 0.11903-0.46099 1.769s0.2445 2.2039 0.49804 1.231 0.23687-2.323-0.03705-3zm28.844 6.269c0.33992-0.55 1.293-1 2.118-1s1.2219 0.45 0.88197 1-1.293 1-2.118 1-1.2219-0.45-0.88197-1zm-31.342-58c0-1.375 0.22698-1.9375 0.50439-1.25s0.27741 1.8125 0 2.5-0.50439 0.125-0.50439-1.25zm0.50878-17.667c-1.0886-1.0886-0.78639-28.333 0.31428-28.333 1.7618 0 2.2109 4.6604 1.6004 16.606-0.6139 12.012-0.75649 12.885-1.9147 11.727zm62.373-33.462c-1.2134-2.8206-1.9903-5.9541-1.7264-6.9632s-0.14873-2.3564-0.91695-2.994c-1.7372-1.4417-1.8639-5.2367-0.15594-4.6674 3.0121 1.004 8.0468 13.937 6.9935 17.965-0.76965 2.9431-1.8672 2.069-4.1942-3.3403zm-58.253-4.8716c-0.71249-6.5748 0.89231-10.88 7.541-20.229 7.2091-10.137 8.0534-12.766 8.1162-25.271l0.05524-11 5.5-0.27016c9.1864-0.45125 20.5 1.0479 20.5 2.7165 0 0.91509-1.8365 1.8701-5 2.6l-5 1.1537 5.4214 0.39999c4.854 0.35812 5.5157 0.68429 6.3221 3.1163 0.68798 2.0748 0.47037 3.3211-0.9214 5.2769-1.9081 2.6814-1.5002 2.6483-11.501 0.93487-6.2242-1.0664-10.269 0.95313-12.739 6.3608-4.6762 10.237-14.82 27.211-16.262 27.211-0.57055 0-0.79998 1.0125-0.50984 2.25s0.20024 4.05-0.19979 6.25l-0.72732 4-0.59603-5.5zm52.574-11.765c-1.4414-0.9301-7.74-14.189-7.0624-14.867 0.52597-0.52596 1.7934 1.1021 6.7203 8.6324 3.771 5.7637 3.9237 8.5458 0.34207 6.2347zm-36.361-15.676c0-0.85746 0.45-1.559 1-1.559s1 0.42344 1 0.94098-0.45 1.2191-1 1.559-1-0.08352-1-0.94098z" fill="#dfdfe0"/>
   <path d="m258.9 626.36c-7.3051-0.97756-11.252-4.5774-14.182-6.4971-1.8741-1.228-3.0181-1.8917-2.5536-4.0066 0.38161-1.7374-1.6874-1.6038-2.6158-2.3744-0.79191-0.65723 0.79307-2.7539 0.43561-4.6593s2.9611-3.4644 0.16317-3.4644c-1.6425 0-2.5639-1.9859-0.13954-4.6005 1.9948-2.1513-0.27382-2.3039 0.75884-1.0596 0.66352 0.79948 2.0215 1.2405 3.0177 0.97994s3.5672 0.26529 5.7132 1.1684c3.7597 1.5823 3.829 1.696 1.9019 3.1215-1.1583 0.85681-2.9821 1.2333-4.3338 0.8947-1.7432-0.43672-2.1301-0.2582-1.5289 0.70541 0.44267 0.70954 0.94333 2.1901 1.1126 3.2901s1.3743 3.0693 2.678 4.3763c1.9302 1.9351 3.7337 2.4738 9.714 2.9017 4.9726 0.35578 6.7004 0.77663 5.351 1.3034-1.8117 0.70726-1.7656 0.79409 0.50719 0.95531 10.941 0.77609 22.473-0.97947 26.186-3.9866 1.9513-1.5801 2.0669-2.0402 0.87362-3.478-0.81387-0.98064-1.0047-2.0052-0.46757-2.5101 1.1096-1.043 5.4076 0.47166 5.4076 1.9057 0 1.5453 2.5797 1.2436 4-0.46778 1.5327-1.8468 3-1.9426 3-0.19578 0 2.1826-5.7098 10.46-8.4573 12.26-5.7655 3.7777-22.346 5.3375-36.543 3.4378zm-16.344-21.271c-0.27393-0.67703-0.48137 0.11903-0.46099 1.769s0.2445 2.2039 0.49804 1.231 0.23687-2.323-0.03705-3zm26.844 11.269c0.33992-0.55 1.4915-1 2.559-1s1.941 0.45 1.941 1-1.1516 1-2.559 1c-1.4514 0-2.2915-0.43284-1.941-1zm-14.229-12.604c0.33229-0.33229 1.1948-0.36781 1.9167-0.07894 0.79773 0.31922 0.56078 0.55618-0.60417 0.60416-1.0542 0.04342-1.6448-0.19292-1.3125-0.52522zm-15.271-81.837c0-11.926 0.86321-17.009 2.2591-13.303 0.80245 2.1305-0.48057 26.744-1.3941 26.744-0.47574 0-0.86499-6.0484-0.86499-13.441zm63.636-18.842c-0.89972-2.3559-1.6359-5.7043-1.6359-7.441s-0.45-3.4357-1-3.7756c-1.3273-0.82031-1.2852-3.5 0.05503-3.5 1.2722 0 5.6685 9.6352 5.9593 13.061 0.60683 7.1485-0.98319 7.9279-3.3784 1.656zm-57.605-14.967c0.05271-2.1113 10.927-18.125 11.749-17.303 0.51693 0.51692-5.3001 12.066-7.9596 15.803-2.062 2.8974-3.8422 3.602-3.7897 1.5zm49.525-4.9725c-0.85618-1.2224-1.5567-2.8568-1.5567-3.632s-0.97541-2.9877-2.1676-4.9167c-1.5139-2.4496-1.7401-3.3719-0.75-3.0585 0.77968 0.24681 2.1635 1.9155 3.0751 3.7082s2.3741 4.0514 3.25 5.0192c1.7441 1.9272 2.148 5.1022 0.6492 5.1022-0.51881 0-1.6438-1.0001-2.5-2.2225zm-37.557-14.095c0-0.41052 0.62176-2.2345 1.3817-4.0533 0.91806-2.1972 1.3056-6.5291 1.155-12.91-0.1247-5.2815 0.111-10.149 0.52378-10.817 0.55709-0.90139 3.599-1.0414 11.803-0.54309 6.0788 0.3692 11.758 0.94199 12.62 1.2729 2.417 0.92751-0.13647 3.368-3.524 3.368-6.0563 0-6.4592 1.5-0.53719 2 5.4219 0.45777 6.0011 0.73832 6.8572 3.3215 0.7626 2.3012 0.54834 3.2331-1.162 5.0536-1.9508 2.0766-2.5134 2.1632-8.073 1.2438-9.0182-1.4914-13.042-0.16431-15.591 5.1419-1.9492 4.0583-5.4535 8.5058-5.4535 6.9214z" fill="#dfe0dc"/>
   <path d="m261.88 626.36c-8.9795-0.86216-16.077-4.7561-17.797-6.8286-0.71183-0.8577-2.4634-2.8346-2.1042-4.2655 0.44065-1.7557-0.6319-1.4559-2.0092-2.8332-2.281-2.281-1.9976-7.0007-0.56828-12.706 0.8176-3.2636 1.0043 0.25738 1.2997 5.391 0.28646 4.9777 0.42818 5.2243 2.6776 4.6598 1.9158-0.48083 2.6702-0.02564 3.9004 2.3533 0.83886 1.6222 2.7839 3.4162 4.3224 3.9867s4.3722 1.6464 6.2972 2.3909c5.144 1.9893 22.163 1.7355 29-0.43247 8.0542-2.5541 8.8048-3.1672 6.7102-5.4817-2.0956-2.3156-2.1652-3.2323-0.24542-3.2323 0.80565 0 1.953 0.91222 2.5497 2.0272 1.0466 1.9556 1.1879 1.9663 4.0044 0.30257 4.4528-2.6303 4.6616-0.92821 0.63083 5.1425-4.2512 6.4027-7.2133 7.9433-18.214 9.4734-8.1812 1.1379-9.126 1.1403-20.454 0.05268zm-19.288-22.638c-1.1196-1.1196 0.34352-2.3605 2.7834-2.3605 3.0084 0 5.5228 0.95924 5.5228 2.107 0 1.0121-7.324 1.2356-8.3062 0.25353zm-2.6785-71.111c0.00842-0.9625 0.45153-2.425 0.98469-3.25 0.7356-1.1383 0.97307-0.71622 0.98469 1.75 0.00842 1.7875-0.43469 3.25-0.98469 3.25s-0.99311-0.7875-0.98469-1.75zm0.59168-7.8318c-0.99829-2.6015-0.68597-15.251 0.39301-15.918 0.63856-0.39465 1 2.6563 1 8.441 0 9.0648-0.25616 10.44-1.393 7.4772zm63.319-22.112c-0.56324-1.4814-0.88327-4.2939-0.71118-6.25l0.31289-3.5565 1.7359 3.8721c1.9293 4.3034 2.2858 8.6279 0.71118 8.6279-0.56361 0-1.4856-1.2121-2.0488-2.6935zm-56.926-15.442c0-1.7147 5.1104-9.1965 7.1372-10.449 1.3916-0.86003-3.5551 8.1925-5.7644 10.549-1.2027 1.2829-1.3728 1.2705-1.3728-0.09997zm50.4-2.6296c-1.6497-1.1015-3.657-5.3111-2.8946-6.0703 0.84286-0.83939 4.4949 3.5858 4.4949 5.4464 0 1.5891-0.09769 1.6272-1.6003 0.62391zm-38.364-17.785c0.01949-0.5225 0.63249-2.0273 1.3622-3.344 0.93173-1.6812 1.0717-3.4676 0.47022-6-0.47111-1.9833-0.56978-6.7064-0.21926-10.496l0.63731-6.8896 8.607 0.63615c11.855 0.87621 16.248 1.7177 15.818 3.03-0.20064 0.61217-1.6801 1.2364-3.2877 1.3872-7.2542 0.68054-7.9202 1.6612-1.4898 2.1934 5.9863 0.49545 6.4838 0.72322 7.1627 3.2794 0.52193 1.965 0.2289 3.3654-1.0294 4.9193-1.6719 2.0648-2.0512 2.1114-7.6627 0.94307-3.7397-0.77863-7.37-0.92512-9.9037-0.39965-3.3969 0.70447-4.3375 1.4958-6.2384 5.2484-2.334 4.6076-4.2878 7.1465-4.2261 5.4919z" fill="#e1ded1"/>
   <path d="m261.88 626.36c-8.9795-0.86216-15.671-4.4854-17.391-6.5579-0.71183-0.8577-2.8694-3.3759-2.5102-4.8069 0.44065-1.7557-0.6319-1.1852-2.0092-2.5626-2.281-2.281-0.50897-8.4894-0.43295-11.894 0.07509-3.3636 0.86898-0.55462 1.1644 4.579 0.28646 4.9777 0.42818 5.2243 2.6776 4.6598 1.9158-0.48083 2.6702-0.02564 3.9004 2.3533 0.83886 1.6222 2.7839 3.4162 4.3224 3.9867s4.3722 1.6464 6.2972 2.3909c5.144 1.9893 22.163 1.7355 29-0.43247 8.0542-2.5541 8.8048-3.1672 6.7102-5.4817-2.0956-2.3156-2.1652-3.2323-0.24542-3.2323 0.80565 0 1.953 0.91222 2.5497 2.0272 1.0466 1.9556 1.1879 1.9663 4.0044 0.30257 4.4528-2.6303 4.6616-0.92821 0.63083 5.1425-4.2512 6.4027-7.2133 7.9433-18.214 9.4734-8.1812 1.1379-9.126 1.1403-20.454 0.05268zm-19.288-22.638c-1.1196-1.1196 0.34352-2.3605 2.7834-2.3605 3.0084 0 5.5228 0.95924 5.5228 2.107 0 1.0121-7.324 1.2356-8.3062 0.25353zm-2.6785-71.111c0.00842-0.9625 0.45153-2.425 0.98469-3.25 0.7356-1.1383 0.97307-0.71622 0.98469 1.75 0.00842 1.7875-0.43469 3.25-0.98469 3.25s-0.99311-0.7875-0.98469-1.75zm0.59168-7.8318c-0.99829-2.6015-0.68597-15.251 0.39301-15.918 0.63856-0.39465 1 2.6563 1 8.441 0 9.0648-0.25616 10.44-1.393 7.4772zm63.319-22.112c-0.56324-1.4814-0.88327-4.2939-0.71118-6.25l0.31289-3.5565 1.7359 3.8721c1.9293 4.3034 2.2858 8.6279 0.71118 8.6279-0.56361 0-1.4856-1.2121-2.0488-2.6935zm-56.926-15.442c0-1.7147 5.1104-9.1965 7.1372-10.449 1.3916-0.86003-3.5551 8.1925-5.7644 10.549-1.2027 1.2829-1.3728 1.2705-1.3728-0.09997zm50.4-2.6296c-1.6497-1.1015-3.657-5.3111-2.8946-6.0703 0.84286-0.83939 4.4949 3.5858 4.4949 5.4464 0 1.5891-0.09769 1.6272-1.6003 0.62391zm-38.364-17.785c0.01949-0.5225 0.63249-2.0273 1.3622-3.344 0.93173-1.6812 1.0717-3.4676 0.47022-6-0.47111-1.9833-0.56978-6.7064-0.21926-10.496l0.63731-6.8896 8.607 0.63615c11.855 0.87621 16.248 1.7177 15.818 3.03-0.20064 0.61217-1.6801 1.2364-3.2877 1.3872-9.0064 0.84492-9.3541 2.434-0.70476 3.2202 4.5722 0.41558 5.7068 0.89754 6.372 2.7069 0.57174 1.555 0.28208 2.8524-0.98666 4.4193-1.7148 2.1177-2.0629 2.1624-7.6998 0.9888-3.7397-0.77863-7.37-0.92512-9.9037-0.39965-3.3969 0.70447-4.3375 1.4958-6.2384 5.2484-2.334 4.6076-4.2878 7.1465-4.2261 5.4919zm18.915-15.436c2.4691-0.00978 3.1431-0.32054 2.3706-1.093-1.3117-1.3117-10.321-0.16859-10.321 1.3095 0 0.55224 1.0113 0.73207 2.25 0.40012s3.8025-0.60912 5.7-0.61663z" fill="#d5d5d4"/>
   <path d="m261.9 625.38c-14.866-1.2047-19.403-3.7563-18.339-10.312 0.67898-4.1841 1.7419-4.6652 3.5809-1.621 2.3768 3.9344 8.5357 6.1216 20.322 7.217 9.5791 0.89023 11.827 0.80245 16.216-0.63334 2.8028-0.91674 5.8511-1.6668 6.7741-1.6668s3.8759-1.6133 6.5621-3.5852c6.6125-4.854 6.6976-1.9329 0.13398 4.5951-4.2164 4.1936-5.4893 4.8515-11.332 5.8572-7.0352 1.2109-10.549 1.2329-23.918 0.14948zm-0.40571-169.77c-0.90573-2.9326-0.23667-14.173 0.86872-14.595 1.6352-0.62407 13.537 1.5282 13.537 2.448 0 0.45478-0.9811 1.3519-2.1802 1.9937-2.0437 1.0937-2.0704 1.2471-0.42665 2.4491 1.5406 1.1265 1.0767 1.4228-3.8198 2.4393-3.0653 0.63637-5.5734 1.6276-5.5734 2.2028s0.85019 0.8234 1.8893 0.55167c2.7472-0.7184 5.1762 0.95567 2.5827 1.78-1.0846 0.34474-2.7534 1.044-3.7084 1.5538-2.3419 1.2502-2.5453 1.1974-3.1693-0.823zm16.406-0.53382-4.5-1.0696 4.2985-0.97559c2.7548-0.62523 4.127-1.4226 3.8209-2.2202-0.28001-0.72967 0.55964-1.4429 2.0293-1.7239 3.1746-0.60686 5.443 3.2527 3.3758 5.7436-1.4346 1.7285-2.6477 1.7616-9.0246 0.24579z" fill="#c7c5bb"/>
   <path d="m258.9 624.42c-11.809-1.1953-15.124-3.1931-14.724-8.8742 0.12309-1.7474 0.47711-3.178 0.78671-3.1791s1.859 1.3509 3.4432 3.0043 4.4808 3.4598 6.4371 4.0139c6.2763 1.778 24.589 2.3995 30.83 1.0463 6.4611-1.4009 6.6317-1.4808 11.64-5.456 4.2943-3.4082 5.9813-2.7355 2.5069 0.99949-2.8073 3.0178-6.5854 4.811-9.3738 4.449-1.6352-0.2123-1.7494-0.00804-0.70144 1.2547 1.0032 1.2088 1.0002 1.6637-0.01524 2.2913-1.7495 1.0813-21.715 1.3729-30.83 0.45027zm2.5758-169.72c-0.351-0.91471-0.34102-4.2897 0.02218-7.5 0.58785-5.1959 0.90813-5.8369 2.9164-5.8369 1.2408 0 3.6821 0.59963 5.4251 1.3325 2.772 1.1655 2.9743 1.4942 1.6148 2.6224-0.85485 0.70947-1.5543 1.897-1.5543 2.6389s-1.4625 1.7375-3.25 2.2124c-2.755 0.73189-3.2062 1.2693-2.9622 3.5286 0.31742 2.939-1.2043 3.6284-2.2121 1.0021zm16.924-0.3369c-0.36517-0.59086 0.75628-1 2.741-1 1.8475 0 3.899-0.54 4.559-1.2 0.93333-0.93333 1.2-0.71111 1.2 1 0 1.8945-0.54724 2.2-3.941 2.2-2.1675 0-4.2191-0.45-4.559-1zm-12.229-0.60417c0.33229-0.33229 1.1948-0.36781 1.9167-0.07894 0.79773 0.31922 0.56078 0.55618-0.60417 0.60416-1.0542 0.04342-1.6448-0.19292-1.3125-0.52522z" fill="#bfc0ba"/>
   <path d="m260.9 624.36c-4.125-0.38698-8.4-1.0611-9.5-1.4981-3.5583-1.4135-6.5004-4.78-6.4851-7.4208 0.0147-2.5453 0.05309-2.5324 3.25 1.0922l3.2351 3.6679 15.787 1.1179c8.6831 0.61485 16.217 0.85242 16.742 0.52794s1.7456-0.14726 2.7125 0.39383c1.5599 0.873 1.4408 1.1044-1.0572 2.0541-3.0456 1.158-12.761 1.1835-24.685 0.06487zm36-7.9594c0-0.53065 1.0125-1.4961 2.25-2.1455 2.2379-1.1744 2.2398-1.1692 0.34501 0.96482-2.1163 2.3835-2.595 2.6013-2.595 1.1807zm-12-162.48c0-0.24254 0.45-0.7191 1-1.059s1-0.14148 1 0.44098-0.45 1.059-1 1.059-1-0.19844-1-0.44098zm-24-3.5c0-1.0675 0.47635-2.2354 1.0586-2.5952 0.60722-0.37529 0.78652-1.8927 0.42054-3.559-0.52847-2.4061-0.31382-2.9048 1.2503-2.9048 2.9164 0 5.5382 2.4104 5.8551 5.3832 0.24262 2.2756-0.17068 2.784-2.6696 3.2838-1.6262 0.32523-3.1988 0.9832-3.4948 1.4622-0.96466 1.5609-2.4202 0.91727-2.4202-1.0701z" fill="#c0bfb9"/>
   <path d="m261.4 624.4c-9.0794-0.73725-14.123-2.9199-15.576-6.7401-1.6266-4.2784-0.36904-5.067 1.9356-1.2137l2.1453 3.5869 16.397 1.1703c9.0182 0.64368 17.072 0.91139 17.896 0.5949s1.7972-0.09392 2.1609 0.49461c1.7251 2.7913-7.2263 3.5469-24.959 2.107zm0.09109-173.78c-0.2864-0.2864-0.06163-1.3786 0.49949-2.427s0.75198-2.7514 0.42414-3.7844c-0.78338-2.4682 0.71498-3.2898 3.8359-2.1032 1.934 0.73533 2.4991 1.6368 2.4352 3.885-0.06852 2.41-0.66582 3.1063-3.3786 3.9389-1.8125 0.55626-3.5297 0.77706-3.8161 0.49066z" fill="#b4b4b3"/>
   <path d="m262.90057,623.61465c-4.12436-.19257-7.94936-.82988-8.5-1.41625-.70667-.75251 1.35206-.87598 6.99883-.41975 4.4.35549 9.05516.63373 10.34479.6183s3.08963.40675 4,.93818c1.26723.73975.83482.92679-1.84479.79794-1.925-.09255-6.87447-.32584-10.99883-.51842zm-.3628-174.75247c.31659-.825 1.20246-1.5 1.96862-1.5 1.89454,0 1.76491,1.64331-.18878,2.39301-2.25844.86665-2.42333.78392-1.77984-.89301z" fill="#a4a49e"/>
   <path d="m285.94 440.27s2.2564 1.4359 2.4615 2.4615-1.641 1.641-1.641 1.641v2.8718s2.6512 0.3551 2.6512 1.073-2.6512 1.7987-2.6512 1.7987l0.18965 1.0102 1.4514 1.4514s1.4601-0.03968 0.94726 0.47313-2.9985 1.5781-2.9985 1.5781-0.41025 6.564 0.8205 8.6152 13.538 20.512 15.179 24.615 6.1537 14.359 5.3332 16.82-0.34636 101.33-0.34636 101.33 0.78855 1.8626-1.6729 5.5548-0.9611 2.6614-5.7754 7.9834c-5.3961 5.9651-22.564 7.9215-29.948 7.9215s-16.82-2.178-21.743-5.0498-8.205-9.8799-8.6152-14.803 0.25254-64.868 0.66279-104.3c-0.34736-3.819 3.283-12.089 6.1547-17.422s10.003-15.272 12.054-18.964 2.8718-13.128 2.8718-13.128-2.0512 1.073-2.0512-0.56796 1.2308-2.714 1.2308-2.714-1.7987-1.0411-1.7987-1.8616 2.3192-0.9278 1.5462-7.5752c3.7881-2.4296 25.278-0.40924 25.688-0.81949z" fill="none" opacity=".54444" stroke="#000" stroke-width=".71266"/>
   <path d="m286.05 456.7s-0.9425-1.4138-10.368-1.4138-14.609 0.47126-14.609 0.47126" fill="none" opacity=".19725" stroke="#000"/>
   <path d="m254.04 513.25c14.231 1.9352 26.71 1.7842 40.933 0.07633 4.0858 0.60136 3.8673 4.1938 3.7536 6.7578 0 18.928 0.47126 35.972 0.47126 54.9 0.07057 3.4819-3.1748 6.8803-6.525 6.5975-12.565 2.3062-25.967 2.9281-39.583-1.0188-4.0858-0.60137-3.8673-4.1938-3.7536-6.7578v-56.785c-0.06398-2.0238 2.1788-3.8213 4.7039-3.77z" fill="#fff" stroke="#000" stroke-width=".3351"/>
  </g>
 </g>
</svg>
